<?xml version="1.0" encoding="iso-8859-1"?>
<!-- Uploaded to: SVG Repo, www.svgrepo.com, Generator: SVG Repo Mixer Tools -->
<svg height="800px" width="800px" version="1.1" id="Layer_1" xmlns="http://www.w3.org/2000/svg" xmlns:xlink="http://www.w3.org/1999/xlink" 
	 viewBox="0 0 512 512" xml:space="preserve">
<polygon style="fill:#2F2D30;" points="48.218,116.934 48.218,47.994 117.159,47.994 393.286,47.994 463.242,47.994 
	463.242,116.934 463.242,394.074 463.242,463.018 393.286,463.018 118.175,463.018 48.218,463.018 48.218,394.077 "/>
<circle style="fill:#3E3B43;" cx="255.734" cy="255.511" r="248.375"/>
<circle style="fill:#2F2D30;" cx="255.734" cy="255.511" r="213.774"/>
<path style="fill:#57545C;" d="M334.067,272.101l-10.954-59.862c42.635-16.526,88.582-16.529,129.018,0.341
	c-11.518-52.825-43.802-97.891-87.885-126.194c-40.231,16.592-73.046,49.182-91.658,90.508l-60.289,10.474
	c-15.798-42.227-15.532-88.226,1.14-128.204c-53.325,11.461-98.789,44.076-127.168,88.641c16.653,39.9,49.062,72.445,90.107,90.97
	l10.835,60.032c-42.148,15.649-88.014,15.311-127.879-1.351c11.306,53.301,43.735,98.796,88.125,127.296
	c40.141-16.554,72.896-49.04,91.531-90.235l60.588-11.703c16.144,42.441,16.019,88.784-0.725,129.031
	c52.826-11.52,97.892-43.809,126.193-87.897C408.389,323.574,375.607,290.676,334.067,272.101z"/>
<circle style="fill:#FFDA44;" cx="255.714" cy="255.511" r="74.762"/>
<circle style="fill:#FFCD00;" cx="255.734" cy="255.511" r="31.622"/>
<g style="opacity:0.23;">
	<path style="fill:#FFFFFF;" d="M330.125,255.835c0-21.323-8.941-40.545-23.261-54.165L186.05,227.813
		c-3.504,8.656-5.45,18.109-5.45,28.022c0,21.323,8.941,40.545,23.261,54.165l120.814-26.143
		C328.178,275.201,330.125,265.748,330.125,255.835z"/>
</g>
<path d="M512,256.001c0-50.034-14.273-97.867-40.864-138.879V48.489c0-4.211-3.412-7.624-7.624-7.624h-68.633
	C353.866,14.274,306.033,0.001,256.001,0.001c-50.034,0-97.867,14.273-138.879,40.864H48.488c-4.21,0-7.624,3.412-7.624,7.624
	v68.633C14.273,158.134,0,205.967,0,256.001c0,50.033,14.273,97.866,40.864,138.878v68.633c0,4.211,3.413,7.624,7.624,7.624h68.633
	c41.012,26.591,88.846,40.864,138.879,40.864s97.867-14.273,138.879-40.864h68.633c4.211,0,7.624-3.412,7.624-7.624v-68.633
	C497.727,353.867,512,306.034,512,256.001z M455.889,56.113v39.928c-5.867-7.302-12.15-14.339-18.869-21.059
	c-6.719-6.72-13.756-13.003-21.059-18.869C415.961,56.113,455.889,56.113,455.889,56.113z M56.111,56.113h39.928
	C88.737,61.98,81.7,68.263,74.98,74.982S61.978,88.738,56.111,96.041V56.113z M56.111,455.888V415.96
	c5.867,7.302,12.15,14.339,18.869,21.059s13.756,13.003,21.059,18.869L56.111,455.888L56.111,455.888z M15.247,256.001
	c0-132.752,108.001-240.753,240.753-240.753s240.753,108.001,240.753,240.753c0,132.751-108.001,240.752-240.753,240.752
	S15.247,388.752,15.247,256.001z M455.889,455.888h-39.928c7.302-5.867,14.339-12.15,21.059-18.869
	c6.72-6.719,13.003-13.756,18.869-21.059L455.889,455.888L455.889,455.888z"/>
<path d="M256.001,216.758c-21.639,0-39.243,17.604-39.243,39.243s17.604,39.242,39.243,39.242s39.243-17.603,39.243-39.242
	S277.639,216.758,256.001,216.758z M256.001,279.996c-13.231,0-23.996-10.764-23.996-23.995c0-13.232,10.764-23.996,23.996-23.996
	c13.232,0,23.996,10.764,23.996,23.996C279.996,269.232,269.232,279.996,256.001,279.996z"/>
<path d="M412.553,99.447C370.736,57.629,315.138,34.6,255.999,34.6S141.264,57.63,99.447,99.447
	C57.629,141.265,34.6,196.863,34.6,256.001s23.029,114.736,64.847,156.553c41.817,41.818,97.415,64.847,156.553,64.847
	s114.736-23.029,156.554-64.847c41.817-41.817,64.846-97.415,64.846-156.553S454.37,141.265,412.553,99.447z M456.092,206.344
	c-42.531-17.997-91.477-18.184-136.682-0.361c-9.868-12.612-23.361-22.247-38.908-27.318c19.822-42.857,54.858-74.817,97.47-88.753
	C416.159,118.031,444.333,158.978,456.092,206.344z M255.341,322.091c-36.443,0-66.09-29.647-66.09-66.09
	s29.647-66.091,66.09-66.091s66.09,29.648,66.09,66.091S291.783,322.091,255.341,322.091z M362.317,79.44
	c-19.465,7.934-37.713,19.603-53.434,34.278c-18.251,17.037-33.25,38.241-43.6,61.574c-3.262-0.399-6.576-0.629-9.943-0.629
	c-13.093,0-25.462,3.128-36.43,8.647c-16.041-44.196-13.746-91.378,6.515-131.193c9.98-1.49,20.187-2.271,30.574-2.271
	C294.868,49.848,331.255,60.666,362.317,79.44z M206.937,55.763c-8.196,19.398-12.876,40.591-13.629,62.123
	c-0.866,24.724,3.426,50.087,12.423,73.724c-12.968,10.014-22.844,23.84-27.918,39.797c-42.513-19.736-74.34-54.53-88.356-96.756
	C117.705,95.989,159.063,67.495,206.937,55.763z M79.034,150.368c17.338,42.305,51.345,76.744,95.52,96.31
	c-0.351,3.062-0.551,6.169-0.551,9.323c0,13.235,3.198,25.73,8.831,36.786c-44.093,15.865-91.108,13.494-130.788-6.724
	c-1.44-9.817-2.199-19.853-2.199-30.063C49.848,217.417,60.513,181.281,79.034,150.368z M55.633,304.531
	c19.367,8.201,40.526,12.897,62.028,13.678c2.159,0.077,4.321,0.117,6.488,0.117c22.584,0,45.532-4.245,67.061-12.385
	c10.116,12.962,24.053,22.803,40.118,27.776c-19.849,42.672-54.788,74.47-97.301,88.372
	C95.539,393.748,67.221,352.375,55.633,304.531z M149.684,432.562c19.55-7.968,37.868-19.703,53.637-34.47
	c18.118-16.966,33.005-38.04,43.315-61.226c2.861,0.306,5.763,0.472,8.704,0.472c13.709,0,26.63-3.423,37.973-9.439
	c16.304,44.318,14.125,91.907-6.186,131.907c-10.155,1.545-20.548,2.348-31.126,2.348
	C217.133,462.154,180.746,451.336,149.684,432.562z M305.666,456.09c18.001-42.479,18.341-91.406,0.692-136.808
	c12.347-9.974,21.734-23.468,26.599-38.955c42.971,19.758,75.132,54.903,89.124,97.654
	C393.966,416.16,353.026,444.332,305.666,456.09z M432.575,362.293c-17.356-42.855-51.739-77.657-96.412-97.251
	c0.33-2.97,0.514-5.984,0.514-9.042c0-13.281-3.22-25.816-8.889-36.9c43.956-16.49,91.409-14.621,131.394,5.441
	c0.201,0.101,0.407,0.182,0.612,0.263c1.551,10.176,2.357,20.594,2.357,31.196C462.152,294.859,451.341,331.236,432.575,362.293z"/>
</svg>