<?xml version="1.0" encoding="iso-8859-1"?>
<!-- Uploaded to: SVG Repo, www.svgrepo.com, Generator: SVG Repo Mixer Tools -->
<svg version="1.1" id="Layer_1" xmlns="http://www.w3.org/2000/svg" xmlns:xlink="http://www.w3.org/1999/xlink" 
	 viewBox="0 0 511.999 511.999" xml:space="preserve">
<path style="fill:#2969B0;" d="M336.196,342.294l117.815-117.815c16.813-16.813,16.813-44.072,0-60.885l-37.033-37.033
	c-16.813-16.813-44.072-16.813-60.885,0L238.279,244.377L336.196,342.294z"/>
<rect x="131.2" y="151.555" transform="matrix(-0.7071 0.7071 -0.7071 -0.7071 426.632 293.6291)" style="fill:#EBEBEB;" width="42.608" height="167.235"/>
<rect x="35.707" y="139.68" transform="matrix(0.7071 -0.7071 0.7071 0.7071 -90.8953 102.528)" style="fill:#2969B0;" width="85.215" height="42.608"/>
<path style="fill:#FFAC3D;" d="M79.226,282.916c60.221-60.221,158.21-60.221,218.431,0s60.221,158.21,0,218.431L79.226,282.916z"/>
<circle style="fill:#EBEBEB;" cx="188.444" cy="392.133" r="106.52"/>
<circle style="fill:#A8A8A8;" cx="188.444" cy="392.133" r="22.369"/>
<g>
	<path style="fill:#231F20;" d="M150.781,429.793c-4.16-4.16-10.904-4.16-15.065,0c-4.16,4.16-4.16,10.904,0,15.065
		c0.464,0.463,0.932,0.919,1.405,1.37c2.061,1.959,4.701,2.93,7.336,2.93c2.817,0,5.63-1.111,7.723-3.314
		c4.052-4.265,3.881-11.007-0.383-15.06C151.455,430.458,151.115,430.128,150.781,429.793z"/>
	<path style="fill:#231F20;" d="M226.101,429.793c-10.059,10.059-23.433,15.599-37.659,15.599c-3.332,0-6.663-0.306-9.9-0.91
		c-5.785-1.082-11.345,2.735-12.425,8.519c-1.079,5.784,2.735,11.345,8.519,12.424c4.522,0.844,9.166,1.271,13.805,1.271
		c19.917,0,38.641-7.756,52.724-21.839c4.16-4.16,4.16-10.904,0-15.064C237.007,425.634,230.261,425.633,226.101,429.793z"/>
	<path style="fill:#231F20;" d="M211.791,415.482c12.874-12.875,12.874-33.823,0-46.698l0,0c-12.876-12.875-33.824-12.874-46.7,0
		c-12.874,12.875-12.874,33.823,0,46.698c6.437,6.437,14.894,9.656,23.349,9.656S205.353,421.919,211.791,415.482z M180.156,400.417
		c-4.569-4.569-4.569-12.002,0-16.57c2.284-2.285,5.284-3.427,8.285-3.427s6.001,1.142,8.285,3.426
		c4.569,4.569,4.569,12.003,0,16.57C192.158,404.986,184.723,404.985,180.156,400.417z"/>
	<path style="fill:#231F20;" d="M363.985,235.048c-4.16-4.16-10.904-4.16-15.065,0c-4.16,4.16-4.16,10.904,0,15.065l1.243,1.243
		c2.08,2.08,4.806,3.12,7.532,3.12c2.726,0,5.453-1.04,7.532-3.12c4.16-4.16,4.16-10.904,0-15.065L363.985,235.048z"/>
	<path style="fill:#231F20;" d="M391.838,158.606c-4.16-4.16-10.904-4.16-15.065,0L361.779,173.6c-4.16,4.16-4.16,10.904,0,15.065
		c2.08,2.08,4.806,3.12,7.532,3.12c2.726,0,5.453-1.04,7.532-3.12l14.994-14.994C395.998,169.511,395.998,162.766,391.838,158.606z"
		/>
	<path style="fill:#231F20;" d="M406.902,188.734l-14.994,14.994c-4.16,4.16-4.16,10.904,0,15.065c2.08,2.08,4.806,3.12,7.532,3.12
		c2.726,0,5.453-1.04,7.532-3.12l14.994-14.994c4.16-4.16,4.16-10.904,0-15.065C417.807,184.575,411.062,184.575,406.902,188.734z"
		/>
	<path style="fill:#231F20;" d="M486.413,18.185c4.16-4.16,4.16-10.904,0-15.065c-4.16-4.16-10.904-4.16-15.065,0l-19.316,19.316
		c-16.114,16.115-16.114,42.336,0,58.452c3.783,3.783,5.866,8.811,5.866,14.161s-2.084,10.379-5.866,14.161l-18.67,18.67
		l-8.852-8.852c-20.94-20.939-55.009-20.94-75.949,0L234.089,233.502c-14.507-4.148-29.473-6.277-44.453-6.384l-66.132-66.132
		l7.532-7.532c1.997-1.997,3.12-4.707,3.12-7.532c0-2.825-1.123-5.535-3.12-7.532l-30.128-30.128c-4.16-4.16-10.904-4.159-15.064,0
		l-60.258,60.255c-1.997,1.997-3.12,4.707-3.12,7.532s1.123,5.535,3.12,7.532l30.128,30.128c2.08,2.08,4.806,3.12,7.532,3.12
		c2.726,0,5.453-1.041,7.532-3.12l7.532-7.532l37.618,37.618c-15.988,7.798-30.97,18.323-44.235,31.588
		c-1.997,1.997-3.12,4.707-3.12,7.532s1.123,5.535,3.12,7.532l26.708,26.708c-38.349,45.987-35.959,114.682,7.186,157.829
		c22.843,22.842,52.848,34.264,82.854,34.264c26.669,0,53.335-9.032,74.975-27.077l26.709,26.709c2.08,2.08,4.806,3.12,7.532,3.12
		c2.726,0,5.453-1.04,7.532-3.12c43.895-43.895,57.848-106.559,41.883-162.396l114.472-114.471
		c10.143-10.143,15.73-23.63,15.73-37.974s-5.586-27.831-15.73-37.973l-13.117-13.117l18.671-18.671
		c16.114-16.115,16.114-42.336,0-58.452c-7.809-7.809-7.809-20.514,0-28.323L486.413,18.185z M63.246,191.114L48.182,176.05
		l45.193-45.192l15.064,15.064L63.246,191.114z M93.375,191.114l15.064-15.064l53.228,53.228
		c-8.198,1.337-16.314,3.285-24.271,5.858L93.375,191.114z M120.653,459.921c-37.379-37.379-37.379-98.199,0-135.579
		c18.107-18.107,42.182-28.079,67.788-28.079c25.607,0,49.682,9.972,67.789,28.079l0,0c37.379,37.379,37.379,98.199,0,135.578
		S158.031,497.3,120.653,459.921z M297.38,486.008l-18.9-18.9c38.349-45.987,35.96-114.682-7.186-157.828
		c-22.131-22.132-51.556-34.32-82.854-34.32c-27.72,0-53.965,9.567-74.98,27.129l-18.896-18.896
		c56.432-48.7,142.023-46.28,195.558,7.256C343.66,343.984,346.08,429.575,297.38,486.008z M455.969,194.037
		c0,8.655-3.37,16.791-9.49,22.91L339.015,324.411c-7.976-17.787-19.243-34.445-33.826-49.027
		c-14.583-14.583-31.24-25.849-49.027-33.825l42.102-42.102l27.311,27.312c2.08,2.08,4.806,3.12,7.532,3.12
		c2.726,0,5.453-1.041,7.532-3.12c4.16-4.16,4.161-10.904,0-15.064l-27.312-27.312l50.298-50.298c6.12-6.12,14.256-9.49,22.91-9.49
		s16.791,3.37,22.909,9.49l37.033,37.033C452.598,177.246,455.969,185.382,455.969,194.037z"/>
</g>
</svg>