<?xml version="1.0" encoding="iso-8859-1"?>
<!-- Uploaded to: SVG Repo, www.svgrepo.com, Generator: SVG Repo Mixer Tools -->
<svg version="1.1" id="Layer_1" xmlns="http://www.w3.org/2000/svg" xmlns:xlink="http://www.w3.org/1999/xlink" 
	 viewBox="0 0 392.656 392.656" xml:space="preserve">
<g>
	<polygon style="fill:#FFC10D;" points="61.346,28.309 61.346,175.121 154.825,130.192 154.825,73.303 	"/>
	<polygon style="fill:#FFC10D;" points="232.336,130.192 325.815,175.121 325.815,28.309 232.336,73.303 	"/>
</g>
<rect x="176.611" y="77.311" style="fill:#56ACE0;" width="33.875" height="49.196"/>
<g>
	<path style="fill:#FFFFFF;" d="M347.601,75.695v52.17c13.059-1.616,23.208-12.606,23.208-26.117
		C370.809,88.301,360.595,77.246,347.601,75.695z"/>
	<path style="fill:#FFFFFF;" d="M39.561,126.442v-49.39c-10.279,3.62-17.713,13.188-17.713,24.63
		C21.847,113.254,29.282,122.822,39.561,126.442z"/>
</g>
<path style="fill:#194F82;" d="M347.601,53.65V10.919c0-8.016-8.404-13.317-15.58-9.826L218.89,55.525h-50.683L55.14,1.157
	c-7.24-3.491-15.58,1.745-15.58,9.826v43.507C17.128,58.564,0.062,78.216,0.062,101.812s17.067,43.184,39.499,47.321v43.507
	c0,8.016,8.404,13.317,15.58,9.826l112.226-54.044h15.321v222.384h-62.448c-6.012,0-10.925,4.848-10.925,10.925
	c0,6.012,4.848,10.925,10.925,10.925h152.178c6.012,0,10.925-4.848,10.925-10.925s-4.848-10.925-10.925-10.925h-67.943V148.422
	h15.321l112.226,54.044c7.24,3.491,15.58-1.745,15.58-9.826V149.78c25.083-1.681,44.994-22.562,44.994-48.032
	C392.595,76.212,372.684,55.396,347.601,53.65z M325.815,175.121l-93.479-44.994V73.238l93.479-44.994V175.121z M347.601,127.865
	v-52.17c13.059,1.616,23.208,12.606,23.208,26.053S360.595,126.248,347.601,127.865z M39.561,77.117v49.39
	c-10.279-3.62-17.713-13.188-17.713-24.63C21.847,90.305,29.282,80.673,39.561,77.117z M61.346,134.458h16.937
	c6.012,0,10.925-4.848,10.925-10.925c0-6.012-4.848-10.925-10.925-10.925H61.346V90.822h35.297c6.012,0,10.925-4.848,10.925-10.925
	c0-6.012-4.848-10.925-10.925-10.925H61.346V28.244l93.479,44.994v56.889l-93.479,44.994V134.458z M210.486,126.572h-33.875V77.376
	h33.875V126.572z"/>
</svg>