<?xml version="1.0" encoding="iso-8859-1"?>
<!-- Uploaded to: SVG Repo, www.svgrepo.com, Generator: SVG Repo Mixer Tools -->
<svg version="1.1" id="Layer_1" xmlns="http://www.w3.org/2000/svg" xmlns:xlink="http://www.w3.org/1999/xlink" 
	 viewBox="0 0 512 512" xml:space="preserve">
<rect x="11.687" y="13.913" style="fill:#2969B0;" width="488.626" height="66.783"/>
<rect x="11.13" y="353.391" style="fill:#FFAC3D;" width="489.739" height="66.783"/>
<rect x="11.13" y="420.174" style="fill:#A8A8A8;" width="489.739" height="77.913"/>
<rect x="44.522" y="80.696" style="fill:#EBEBEB;" width="422.957" height="272.696"/>
<g>
	<rect x="94.609" y="144.139" style="fill:#BFDEFF;" width="136.348" height="209.252"/>
	<rect x="281.043" y="144.139" style="fill:#BFDEFF;" width="136.348" height="209.252"/>
</g>
<g>
	<path style="fill:#231F20;" d="M500.87,342.261h-22.261V91.826h21.704c6.146,0,11.13-4.983,11.13-11.13V13.913
		c0-6.147-4.984-11.13-11.13-11.13H11.687c-6.147,0-11.13,4.983-11.13,11.13v66.783c0,6.147,4.983,11.13,11.13,11.13h21.704v250.435
		H11.13c-6.147,0-11.13,4.983-11.13,11.13v144.696c0,6.147,4.983,11.13,11.13,11.13H500.87c6.146,0,11.13-4.983,11.13-11.13V353.391
		C512,347.244,507.016,342.261,500.87,342.261z M489.739,409.043h-53.35l36.933-44.522h16.417V409.043z M105.739,271.026h35.803
		c6.147,0,11.13-4.983,11.13-11.13c0-6.147-4.983-11.13-11.13-11.13h-35.803V155.27h114.087v186.991H105.739V271.026z
		 M104.534,364.522h44.834l-36.933,44.522H67.601L104.534,364.522z M178.292,364.522h44.835l-36.933,44.522h-44.835L178.292,364.522
		z M252.049,364.522h44.835l-36.933,44.522h-44.835L252.049,364.522z M406.261,248.765h-37.473c-6.146,0-11.13,4.983-11.13,11.13
		c0,6.147,4.984,11.13,11.13,11.13h37.473v71.235H292.174V155.27h114.087V248.765z M325.807,364.522h44.835l-36.933,44.522h-44.835
		L325.807,364.522z M399.565,364.522h44.835l-36.933,44.522h-44.835L399.565,364.522z M22.817,25.043h466.365v44.522H22.817V25.043z
		 M55.652,91.826h400.696v250.435h-27.826V144.139c0-6.147-4.984-11.13-11.13-11.13H281.043c-6.146,0-11.13,4.983-11.13,11.13
		v198.122h-27.826V144.139c0-6.147-4.983-11.13-11.13-11.13H94.609c-6.147,0-11.13,4.983-11.13,11.13v198.122H55.652V91.826z
		 M22.261,364.522h22.261H75.61l-36.933,44.522H22.261V364.522z M489.739,486.957H22.261v-55.652h467.478V486.957z"/>
	<path style="fill:#231F20;" d="M323.153,271.026h1.113c6.146,0,11.13-4.983,11.13-11.13c0-6.147-4.984-11.13-11.13-11.13h-1.113
		c-6.146,0-11.13,4.983-11.13,11.13C312.023,266.043,317.007,271.026,323.153,271.026z"/>
	<path style="fill:#231F20;" d="M187.177,248.765h-1.113c-6.147,0-11.13,4.983-11.13,11.13c0,6.147,4.983,11.13,11.13,11.13h1.113
		c6.147,0,11.13-4.983,11.13-11.13C198.308,253.748,193.323,248.765,187.177,248.765z"/>
</g>
</svg>