<?xml version="1.0" encoding="iso-8859-1"?>
<!-- Uploaded to: SVG Repo, www.svgrepo.com, Generator: SVG Repo Mixer Tools -->
<svg version="1.1" id="Layer_1" xmlns="http://www.w3.org/2000/svg" xmlns:xlink="http://www.w3.org/1999/xlink" 
	 viewBox="0 0 512 512" xml:space="preserve">
<rect x="10.779" y="261.387" style="fill:#2969B0;" width="490.442" height="53.895"/>
<rect x="35.029" y="315.282" style="fill:#BFDEFF;" width="441.937" height="134.737"/>
<path style="fill:#EBEBEB;" d="M439.242,212.881v6.705c0,16.007-6.489,30.494-16.977,40.992c-0.27,0.269-0.55,0.55-0.83,0.808
	H73.534c1.994-12.213,7.826-23.142,16.201-31.528c10.499-10.488,24.986-16.977,40.992-16.977c0.194-0.765,0.41-1.531,0.614-2.285
	L81.133,181.6l3.352-5.799c16.007-27.734,51.469-37.23,79.193-21.224l0.032,0.022c0.55-0.561,1.11-1.11,1.671-1.66l-29.006-50.241
	l5.799-3.352c27.734-16.007,63.186-6.51,79.193,21.213v0.011c0.765-0.216,1.531-0.42,2.296-0.625V61.976h6.705
	c16.007,0,30.494,6.489,40.992,16.977c10.488,10.499,16.977,24.986,16.977,40.992c0.765,0.205,1.531,0.41,2.285,0.625l28.995-50.208
	l5.799,3.352c27.734,16.007,37.23,51.459,21.224,79.182l-0.022,0.043c0.561,0.55,1.11,1.099,1.66,1.66l50.241-29.006l3.352,5.81
	c16.007,27.723,6.51,63.175-21.213,79.182l-0.011,0.011c0.216,0.755,0.42,1.52,0.625,2.285L439.242,212.881L439.242,212.881z"/>
<path style="fill:#FFAC3D;" d="M317.979,245.218c0,5.594-0.744,11.016-2.134,16.168H196.155c-1.39-5.152-2.134-10.574-2.134-16.168
	c0-34.223,27.745-61.979,61.979-61.979C290.223,183.239,317.979,210.995,317.979,245.218z"/>
<g>
	<path style="fill:#231F20;" d="M501.221,250.607h-58.584c4.816-9.504,7.384-20.064,7.384-31.022v-6.705
		c0-5.953-4.826-10.779-10.779-10.779h-32.88c5.366-7.034,9.356-15.122,11.715-23.925c4.751-17.737,2.312-36.261-6.868-52.16
		l-3.352-5.81c-1.429-2.476-3.783-4.284-6.545-5.024c-2.764-0.742-5.705-0.354-8.181,1.077l-28.47,16.437
		c1.13-8.775,0.542-17.771-1.817-26.573c-4.754-17.738-16.132-32.562-32.032-41.739l-5.799-3.352
		c-2.475-1.431-5.419-1.819-8.18-1.08c-2.763,0.739-5.118,2.546-6.548,5.022l-16.442,28.473
		c-3.409-8.163-8.417-15.665-14.863-22.117c-12.994-12.981-30.258-20.13-48.61-20.13h-6.705c-5.953,0-10.779,4.826-10.779,10.779
		v32.928c-21.401-16.291-51.383-19.156-76.105-4.889l-5.799,3.352c-5.151,2.978-6.915,9.567-3.94,14.721l16.437,28.47
		c-8.775-1.13-17.776-0.542-26.579,1.817c-17.741,4.754-32.569,16.132-41.746,32.032l-3.352,5.799
		c-1.431,2.475-1.819,5.419-1.08,8.18c0.739,2.763,2.546,5.118,5.022,6.548l28.477,16.445c-8.161,3.409-15.661,8.417-22.112,14.861
		c-8.027,8.038-13.83,17.721-17.089,28.366h-54.24C4.826,250.608,0,255.434,0,261.387v53.895c0,5.953,4.826,10.779,10.779,10.779
		h13.473v123.961c0,5.953,4.826,10.779,10.779,10.779h441.937c5.953,0,10.779-4.826,10.779-10.779V326.06h13.475
		c5.953,0,10.779-4.826,10.779-10.779v-53.895C512,255.433,507.174,250.607,501.221,250.607z M45.809,439.241v-67.313h53.752
		c5.953,0,10.779-4.826,10.779-10.779s-4.826-10.779-10.779-10.779H45.809v-24.308h420.379v67.313h-53.754
		c-5.953,0-10.779,4.826-10.779,10.779s4.826,10.779,10.779,10.779h53.754v24.308H45.809z M97.352,237.483
		c8.923-8.914,20.775-13.824,33.374-13.824c4.931,0,9.234-3.347,10.448-8.127c0.124-0.489,0.259-0.978,0.391-1.462l0.179-0.652
		c1.281-4.72-0.777-9.711-5.012-12.156l-40.723-23.518c6.348-9.117,15.613-15.637,26.469-18.546
		c12.116-3.246,24.769-1.604,35.647,4.621c4.257,2.579,9.761,1.914,13.279-1.67c0.489-0.498,0.988-0.987,1.527-1.516
		c3.509-3.443,4.244-8.826,1.785-13.083l-23.53-40.757c21.841-10.216,48.308-2.248,60.694,18.893
		c0.724,1.342,1.733,2.533,2.983,3.478c2.691,2.037,6.18,2.696,9.432,1.78c0.719-0.203,1.438-0.395,2.156-0.586
		c4.715-1.261,7.994-5.533,7.994-10.412V72.927c11.064,0.941,21.344,5.704,29.292,13.643c8.914,8.924,13.824,20.776,13.824,33.375
		c0,4.88,3.279,9.151,7.994,10.412c0.706,0.189,1.412,0.377,2.108,0.577c4.755,1.358,9.825-0.691,12.298-4.973l23.517-40.723
		c9.117,6.348,15.637,15.611,18.546,26.463c3.262,12.174,1.588,24.89-4.715,35.806c-0.108,0.186-0.232,0.419-0.328,0.612
		c-2.091,4.183-1.247,9.239,2.091,12.514c0.511,0.501,1.011,1.001,1.512,1.512c3.443,3.512,8.827,4.248,13.087,1.789l40.756-23.53
		c4.72,10.056,5.737,21.34,2.828,32.195c-3.262,12.175-11.069,22.35-21.984,28.653c-0.816,0.471-1.577,1.057-2.243,1.724
		c-2.766,2.767-3.817,6.816-2.743,10.578c0.192,0.673,0.374,1.353,0.58,2.121c1.263,4.711,5.534,7.986,10.411,7.986h47.018
		c-0.85,10.003-4.827,19.368-11.452,26.947h-88.289c0.132-1.79,0.205-3.588,0.205-5.389c0-40.119-32.639-72.758-72.758-72.758
		s-72.758,32.639-72.758,72.758c0,1.801,0.073,3.599,0.205,5.389H88.073C90.362,245.786,93.484,241.358,97.352,237.483z
		 M204.8,245.218c0-28.231,22.969-51.2,51.2-51.2s51.2,22.969,51.2,51.2c0,1.805-0.094,3.604-0.281,5.389H205.08
		C204.894,248.821,204.8,247.022,204.8,245.218z M490.442,304.502H21.558v-32.337h468.884V304.502z"/>
	<path style="fill:#231F20;" d="M374.17,393.487h-3.234c-5.953,0-10.779,4.826-10.779,10.779s4.826,10.779,10.779,10.779h3.234
		c5.953,0,10.779-4.826,10.779-10.779S380.123,393.487,374.17,393.487z"/>
	<path style="fill:#231F20;" d="M141.061,350.26h-3.234c-5.953,0-10.779,4.826-10.779,10.779s4.826,10.779,10.779,10.779h3.234
		c5.953,0,10.779-4.826,10.779-10.779S147.014,350.26,141.061,350.26z"/>
</g>
</svg>