<?xml version="1.0" encoding="iso-8859-1"?>
<!-- Uploaded to: SVG Repo, www.svgrepo.com, Generator: SVG Repo Mixer Tools -->
<svg fill="#000000" height="800px" width="800px" version="1.1" id="Layer_1" xmlns="http://www.w3.org/2000/svg" xmlns:xlink="http://www.w3.org/1999/xlink" 
	 viewBox="0 0 512 512" xml:space="preserve">
<g>
	<g>
		<g>
			<path d="M383.701,428.7h1.711c5.903,0,10.691-4.787,10.691-10.691s-4.787-10.691-10.691-10.691h-1.711
				c-5.903,0-10.691,4.787-10.691,10.691S377.798,428.7,383.701,428.7z"/>
			<path d="M413.149,407.161c1.777,1.128,3.759,1.666,5.719,1.666c3.539,0,7.001-1.755,9.037-4.964
				c6.612-10.418,10.106-22.763,10.106-35.7V225.575c0-5.903-4.787-10.691-10.691-10.691s-10.691,4.787-10.691,10.691v142.588
				c0,8.873-2.343,17.256-6.778,24.242C406.687,397.391,408.164,403.997,413.149,407.161z"/>
			<path d="M152.032,420.147c5.903,0,10.691-4.787,10.691-10.691v-75.104c0-5.903-4.787-10.691-10.691-10.691
				s-10.691,4.787-10.691,10.691v75.104C141.342,415.36,146.129,420.147,152.032,420.147z"/>
			<path d="M152.032,307.893c5.903,0,10.691-4.788,10.691-10.693c0-5.905-4.787-10.691-10.691-10.691s-10.691,4.787-10.691,10.691
				v0.003C141.342,303.107,146.129,307.893,152.032,307.893z"/>
			<path d="M483.981,70.559h-32.072c0-5.903-4.787-10.691-10.691-10.691H328.964c-5.903,0-10.691,4.787-10.691,10.691h-44.367
				v-8.553c0-5.903-4.787-10.691-10.691-10.691h-33.141V40.09c0-10.316,8.393-18.709,18.709-18.709h14.433
				c5.903,0,10.691-4.787,10.691-10.691C273.907,4.787,269.12,0,263.216,0h-14.433c-22.106,0-40.09,17.984-40.09,40.09v11.225
				H67.709c-27.779,0-50.38,22.601-50.38,50.38v0.802c0,27.779,22.601,50.38,50.38,50.38H92.25l-13.721,59.436
				c-2.777,12.026-0.647,19.339,1.064,25.213c1.373,4.714,2.279,7.827,0.759,14.411c-1.521,6.591-3.702,8.993-7.005,12.63
				c-4.113,4.531-9.232,10.17-12.006,22.192c-0.49,2.12-0.851,4.226-1.074,6.27c-0.913,8.444,0.779,14.259,2.141,18.931
				c1.372,4.713,2.279,7.827,0.758,14.414c-1.517,6.573-3.693,8.976-6.984,12.614l-0.898,0.995
				c-4.009,4.444-8.492,10.085-11.047,20.863l-14.564,48.886c-0.1,0.337-0.184,0.679-0.25,1.023
				c-2.492,12.891,0.87,26.092,9.227,36.218c8.356,10.126,20.678,15.935,33.807,15.935h2.067v17.329
				c0,17.514,14.248,31.761,31.761,31.761h22.004c17.514,0,31.761-14.248,31.761-31.761V462.91h1.604
				c24.169,0,43.832-19.664,43.832-43.832V200.986h14.165c18.716,0,33.943-15.227,33.943-33.943v-14.165h9.622
				c5.903,0,10.691-4.787,10.691-10.691v-7.484h44.367c0,5.904,4.787,10.691,10.691,10.691h4.397l-11.878,26.727H299.03
				c-5.903,0-10.691,4.787-10.691,10.691v185.351c0,56.959,42.779,103.3,95.362,103.3h1.711c52.584,0,95.362-46.34,95.362-103.3
				V182.812c0-5.903-4.787-10.691-10.691-10.691h-40.09v-26.727h11.225c5.903,0,10.691-4.787,10.691-10.691h32.072
				c5.903,0,10.691-4.787,10.691-10.691V81.25C494.671,75.346,489.884,70.559,483.981,70.559z M138.669,480.239
				c0,5.724-4.656,10.38-10.38,10.38h-22.004c-5.724,0-10.38-4.656-10.38-10.38v-16.347h42.763V480.239z M184.105,419.078
				c0,12.379-10.072,22.451-22.451,22.451H72.458c-6.724,0-13.036-2.974-17.317-8.161c-4.178-5.064-5.918-11.629-4.811-18.082
				l14.489-48.638c0.064-0.213,0.12-0.429,0.171-0.646c1.402-6.07,3.352-8.571,6.196-11.722l0.847-0.94
				c4.098-4.526,9.198-10.163,11.966-22.153c2.775-12.021,0.646-19.329-1.064-25.202c-1.086-3.727-1.87-6.42-1.412-10.643
				c0.13-1.198,0.349-2.466,0.65-3.768c1.521-6.591,3.702-8.993,7.005-12.63c4.113-4.531,9.231-10.17,12.007-22.194
				c2.774-12.017,0.646-19.327-1.065-25.199c-1.374-4.716-2.281-7.831-0.759-14.424l14.831-64.247h69.912V419.078z M232.213,167.043
				c0,6.927-5.635,12.562-12.562,12.562h-14.165v-26.727h26.727V167.043z M252.525,131.496H67.709
				c-15.99,0-28.999-13.008-28.999-28.999v-0.802c0-15.99,13.008-28.999,28.999-28.999h184.817V131.496z M318.274,113.322h-44.367
				V91.941h44.367V113.322z M459.392,193.503v174.66c0,45.17-33.187,81.918-73.98,81.918h-1.711
				c-40.793,0-73.98-36.748-73.98-81.918v-174.66H459.392z M344.881,172.121l11.878-26.727h51.851v26.727H344.881z M430.527,124.013
				h-90.871V81.25h90.871V124.013z M473.29,113.322h-21.382V91.941h21.382V113.322z"/>
		</g>
	</g>
</g>
</svg>