<?xml version="1.0" encoding="iso-8859-1"?>
<!-- Uploaded to: SVG Repo, www.svgrepo.com, Generator: SVG Repo Mixer Tools -->
<svg version="1.1" id="Layer_1" xmlns="http://www.w3.org/2000/svg" xmlns:xlink="http://www.w3.org/1999/xlink" 
	 viewBox="0 0 512 512" xml:space="preserve">
<rect x="17.067" y="324.267" style="fill:#FFC107;" width="477.867" height="17.067"/>
<path style="fill:#717272;" d="M435.2,290.133V307.2H76.8v-17.067H128c4.693,0,8.533-3.84,8.533-8.533
	c0-56.491,45.909-102.4,102.4-102.4h59.733v17.067h-59.733c-47.104,0-85.333,38.315-85.333,85.333c0,4.693,3.755,8.533,8.533,8.533
	H435.2z"/>
<rect x="315.733" y="170.667" style="fill:#5E35B1;" width="128" height="34.133"/>
<path d="M503.467,307.2h-51.2v-25.6c0-4.693-3.84-8.533-8.533-8.533H171.179c4.181-33.621,32.939-59.733,67.755-59.733h59.733
	c0,4.693,3.755,8.533,8.533,8.533h145.067c4.693,0,8.533-3.84,8.533-8.533v-51.2c0-4.693-3.84-8.533-8.533-8.533H307.2
	c-4.779,0-8.533,3.84-8.533,8.533h-59.733c-63.061,0-114.773,49.067-119.211,110.933H68.267c-4.779,0-8.533,3.84-8.533,8.533v25.6
	h-51.2C3.755,307.2,0,311.04,0,315.733v34.133c0,4.693,3.755,8.533,8.533,8.533h494.933c4.693,0,8.533-3.84,8.533-8.533v-34.133
	C512,311.04,508.16,307.2,503.467,307.2z M315.733,170.667h128V204.8h-128V170.667z M76.8,290.133H128
	c4.693,0,8.533-3.84,8.533-8.533c0-56.491,45.909-102.4,102.4-102.4h59.733v17.067h-59.733c-47.104,0-85.333,38.315-85.333,85.333
	c0,4.693,3.755,8.533,8.533,8.533H435.2V307.2H76.8V290.133z M494.933,341.333H17.067v-17.067h477.867V341.333z"/>
<polygon style="fill:#F9A825;" points="486.4,324.267 486.4,332.8 17.067,332.8 17.067,341.333 494.933,341.333 494.933,324.267 "/>
<polygon style="fill:#555656;" points="426.667,290.133 426.667,298.667 76.8,298.667 76.8,307.2 435.2,307.2 435.2,290.133 "/>
<polygon style="fill:#311B92;" points="435.2,170.667 435.2,196.267 315.733,196.267 315.733,204.8 443.733,204.8 443.733,170.667 
	"/>
</svg>